<?xml version="1.0" encoding="iso-8859-1"?>
<!-- Generator: Adobe Illustrator 19.0.0, SVG Export Plug-In . SVG Version: 6.00 Build 0)  -->
<svg version="1.1" id="Layer_1" xmlns="http://www.w3.org/2000/svg" xmlns:xlink="http://www.w3.org/1999/xlink" x="0px" y="0px"
	 viewBox="0 0 512 512" style="enable-background:new 0 0 512 512;" xml:space="preserve">
<g>
	<g>
		<path d="M317.468,0L72.048,245.418l14.41,14.41L0,346.287L165.713,512l86.459-86.46l14.411,14.411L512,194.532L317.468,0z
			 M425.541,151.303L223.353,353.492l-64.844-64.844L360.697,86.459L425.541,151.303z M317.468,43.23l21.615,21.614L136.894,267.033
			l-21.615-21.616L317.468,43.23z M165.713,468.77L43.23,346.287l64.843-64.844l122.484,122.483L165.713,468.77z M266.582,396.721
			l-21.614-21.614l202.188-202.189l21.615,21.615L266.582,396.721z"/>
	</g>
</g>
<g>
</g>
<g>
</g>
<g>
</g>
<g>
</g>
<g>
</g>
<g>
</g>
<g>
</g>
<g>
</g>
<g>
</g>
<g>
</g>
<g>
</g>
<g>
</g>
<g>
</g>
<g>
</g>
<g>
</g>
</svg>
